<?xml version="1.0" encoding="UTF-8"?>
<svg id="Capa_2" data-name="Capa 2" xmlns="http://www.w3.org/2000/svg" viewBox="0 0 822.5 823.02">
  <defs>
    <style>
      .cls-1 {
        fill: #191b21;
      }

      .cls-1, .cls-2, .cls-3, .cls-4 {
        stroke-width: 0px;
      }

      .cls-2 {
        fill: #388386;
      }

      .cls-3 {
        fill: #93c2c2;
      }

      .cls-4 {
        fill: #488c92;
      }
    </style>
  </defs>
  <g id="Capa_1-2" data-name="Capa 1">
    <g>
      <ellipse class="cls-1" cx="411.25" cy="411.51" rx="411.25" ry="411.51"/>
      <g>
        <path class="cls-2" d="M252.15,619.13c-.32-1.75-3.94-3.77-6.32-4.12-6.05-.91-12.22-.95-18.34-1.34-1.34-.29-2.67-.58-4.01-.87-1.09-.38-2.17-.75-3.26-1.13-25.77-.35-51.54-.15-77.31-.23-3.73-.03-6.1,1.01-6.42,5.02l-.85,6.08c3.38,7.52,11.64,9.8,19.14,10.02,8.61.37,17.22.62,25.84.92,0,0-.07-.02-.07-.02,14.74-.33,29.49-.68,44.23-.94,1.97-.03,3.96.32,5.92.65,7.26,1.25,13.67-1.03,18.84-5.76,1.93-1.76,3.09-5.69,2.62-8.28Z"/>
        <path class="cls-2" d="M156.23,560.68c-2.24-2.99-4.48-5.99-6.73-8.98-1.65-.77-3.3-1.55-4.96-2.3-8.38-3.81-23.37,1.78-23.92,13.14-1.69,6.85-.35,13.04,5.03,17.66,5.85,5.03,12.91,7.65,20.37,4.53,6.76-2.83,10.32-8.62,10.49-16.18-.09-2.62-.19-5.25-.28-7.87Z"/>
        <path class="cls-3" d="M481.56,164.69l-4.92,6.02c-.44,6.99-.88,13.97-1.32,20.96.4,19.82.76,39.64,1.29,59.45.05,1.82,1.2,3.61,1.84,5.41,1.84-.72,3.76-1.28,5.5-2.18,8.11-4.19,16.09-8.62,24.27-12.67,7.57-3.75,7.65-3.58,7.13-12.05.08-2.66.17-5.31.25-7.97.01-6.34.02-12.69.04-19.03.29-8.66.57-17.32.86-25.97-5.99-16.17-21.08-21.34-34.93-11.96Z"/>
        <path class="cls-3" d="M224.72,348.5c.24-18.44.41-36.88.74-55.31.16-8.92-3.11-15.68-11.02-20.24-4.88-2.81-9.81-2.37-14.91-1.37-9.79,3.62-15.09,10.46-15.15,21.07.43,19.3.86,38.59,1.29,57.89,2.52,12.09,22.84,29.98,34.96,30.9,3.53.27,4.92-1.35,4.85-4.6-.23-9.45-.5-18.9-.76-28.35Z"/>
        <path class="cls-3" d="M454.68,257.42c.05-35.58-.02-71.16-.01-106.73.15-6.29.24-12.59.47-18.88,1.28-15.68-12.63-26.57-27.62-24.13-5.87,3.26-11.24,7.17-12.44,14.26-.59,3.46.13,7.15.26,10.74.34,10,.67,20.01,1.01,30.01.55,42.24,1.56,84.46,3.06,126.67.09,3.2,1.19,2.97,3.07,1.22,7.72-4.75,15.34-9.67,23.18-14.2,10.84-6.26,10.91-6.13,9.03-18.95Z"/>
        <path class="cls-3" d="M282.6,365.09c.25-52.12.48-104.25.77-156.37.04-6.66-2.04-12.34-6.88-16.96-2.99-1.41-5.98-2.83-8.97-4.24-12.82,2.01-20.78,2.79-23.9,17.24,0,1.88,0,3.75,0,5.63.25,5.07.5,10.15.75,15.22,0,35,0,70,0,105.01.42,16.64.85,33.28,1.27,49.93-.44,3.52,2.2,3.54,4.2,3.1,8.9-1.95,17.72-4.28,26.61-6.28,5.51-1.24,7.35-4.47,6-9.78.05-.83.14-1.66.15-2.49Z"/>
        <path class="cls-3" d="M397.87,183.75c.16-11.26-2.18-20.31-12.35-26.21-6.83-2.64-13.53-2.81-19.99,1.12-7.02,4.46-8.96,11.12-8.2,18.95.34,5.02.67,10.03,1.01,15.05,2.16,43.47.93,87.04,3.11,130.51.08,1.2,1.36,2.33,2.09,3.49,10.64-6.65,21.36-13.18,31.81-20.11,1.4-.93,1.43-3.92,2.09-5.96.51-38.94-.25-77.9.44-116.84Z"/>
        <g>
          <path class="cls-3" d="M328.77,220.99c7.43-3.09,12.27-13.66,9.86-21.52-2.92-7.97-8.63-12.26-17.09-12.89-7.26.94-12.9,4.22-16.09,11.08-.24,3.32-.49,6.63-.73,9.95,3.24,11.17,12.61,18.04,24.05,13.39Z"/>
          <path class="cls-3" d="M340.39,335.56c-.02-25.12.13-50.25-.13-75.37-.13-12.61-8.02-20.41-18.85-19.54-11.37.91-19.05,9.23-18.92,20.48.38,32.78.84,65.56,1.28,98.35,1.79-.21,3.88.09,5.34-.72,9.45-5.25,18.75-10.78,28.14-16.15,2.85-1.63,4.01-3.85,3.14-7.05Z"/>
        </g>
        <path class="cls-2" d="M129.33,467.82c-4.55-6.05-8.71-12.46-13.77-18.06-4.17-4.62-9.81-6.59-16.24-4.3-6.25,2.22-7.63,6.38-3.98,12.32,4.28,9.19,12.96,12.45,21.56,15.57,2.51.91,5.65.87,8.31.32,2.65-.55,5.57-1.94,4.13-5.86Z"/>
        <path class="cls-2" d="M95.25,404.9c-3.63-2.98-14.87-1.5-18.61,1.81-1.81,4.87.84,7.52,4.87,9.1,6.81,2.67,14.25.64,16.81-4.32-.98-2.25-1.38-5.21-3.07-6.59Z"/>
        <path class="cls-3" d="M647.43,155.72c-6.26-6.85-13.7-11.55-23.06-12.8-2.22-.04-4.43-.07-6.65-.11-16.41,2.99-26.04,8.56-31.13,25.06-2.37,9.16-.86,17.73,3.87,25.82.29,1,.59,1.99.88,2.99,1.77,1.63,3.53,3.27,5.3,4.9,11.06,10.31,26.17,12.49,38.56,4.27,6.06-4.02,10.72-10.14,16.02-15.31.69-2.64,1.38-5.28,2.07-7.92.07-3.33.13-6.67.2-10,.36-6.48-2.76-11.72-6.05-16.9Z"/>
        <path class="cls-4" d="M683.61,403.46c-3.07-10.6-6.15-21.2-9.22-31.81-5-7.67-10.01-15.33-15.01-23-30.99-32.33-80.92-37.18-121.39-21.47-19.46,7.28-36.91,18.11-54.48,28.92-54.78,33.73-109.67,67.3-164.62,100.75-39.65,24.84-94.68,33.9-134.07,3.6-6.85-5.35-12.02-12.82-18.05-19.23-1.88-2-4.05-3.72-6.08-5.56.26,9.31.52,18.63.78,27.94,1.71,3.32,3.42,6.64,5.14,9.96,8.89,23.57,27.89,39.17,49.95,49.1,28.08,12.54,57.17,11.74,84.81-.96,21.4-9.83,41.85-21.92,62.11-34.04,47.43-28.37,94.51-57.35,141.71-86.12,31.21-19.02,66.86-36.67,104.31-28.02,2.93.47,5.97.61,8.79,1.47,14.88,4.54,28.83,10.98,41.16,20.64,9.84,10.23,19.61,20.52,25.01,34.02-.28-8.73-.55-17.47-.83-26.2Z"/>
        <path class="cls-2" d="M516.54,497.53c-1.44.34-3.07.34-4.28,1.06-9.8,5.85-19.42,12.01-29.31,17.69-3.51,2.02-6.79,3.74-7.31,8.2.36,35.68.73,71.37,1,107.05.62-11.08,1.25-22.17,1.86-33.25-.61,11.08-1.24,22.17-1.86,33.25-.11.65-.22,1.29-.34,1.94,1.72,3.78,3.44,7.57,5.16,11.35,10.96,9.86,23.76,7.25,32.95-5.42.72-2.97,1.45-5.95,2.17-8.92-.09-10.98-.19-21.97-.28-32.95.1-4.3.21-8.61.31-12.91-.05-29,.32-58,.62-87-.24-.05-.47-.08-.71-.1Z"/>
        <path class="cls-2" d="M577.57,551.62c-.22-28,.29-56-.25-83.99-2.52.62-5.16.94-7.53,1.91-10.21,4.19-20.33,8.58-30.49,12.9.12,1.32.26,2.03,1.27,2.26-1.01-.24-1.15-.94-1.27-2.26-.32,2.07-.91,4.14-.91,6.2,0,20.21.1,40.41.18,60.62-.14,11.88.79,23.91-.77,35.6-1.1,8.25,4.2,21.08,11.35,24.08,8.61,3.61,19.14.53,25.09-7.86,1.57-2.22,2.14-5.14,3.17-7.75-.03-13.91.02-27.81.17-41.72Z"/>
        <path class="cls-2" d="M643.21,530.59c-.97-11.73-2.41-23.43-3.99-35.1-.86-6.38-4.15-11.48-9.9-14.75-7.76-6.71-16.9-10.5-26.66-13.34-4.7-1.37-5.54.27-5.33,4.19.1.63.19,1.26.29,1.89-.13,2.68-.25,5.36-.38,8.04.04,20.17.12,40.34.09,60.51-.02,7.38.42,14.56,7.98,18.5,13.81,7.03,23.78.33,33.15-9.95,4.03-6.08,5.33-12.96,4.75-19.98Z"/>
        <path class="cls-2" d="M396.41,588.79c-.22-.17-.44-.33-.66-.51h0c-.11-4.59-.22-9.18-.33-13.77,0-1.64,0-3.28.01-4.93-.95.15-2.07.03-2.83.5-10.02,6.26-20.05,12.51-29.91,19.03-1.77,1.17-2.73,3.57-4.06,5.41h0c0,1.38.02,2.75.03,4.13-.09,2.3-.18,4.6-.27,6.91.33,10.97.32,21.94.39,32.92,4.77,13.34,15.11,17.42,28.69,11.32,4.92-3.95,7.42-9.34,9.04-15.25.18-15.25-.03-30.5-.11-45.75ZM395.72,601.76c0,1.5,0,3-.01,4.49,0-1.5,0-3,.01-4.49Z"/>
        <path class="cls-4" d="M673.11,321.75c-8.84-24.85-22.93-45.83-45.01-60.91-11.84-7.55-24.93-11.73-38.63-14.25-1.68-.06-3.37-.12-5.05-.17-8.65.04-17.3.09-25.95.13-10.83,1.39-21.29,4.55-31.87,7.13-5.54,2.57-11.29,4.76-16.57,7.77-53.51,29.92-105.88,61.77-158.21,93.7-19.58,11.82-39.25,23.49-58.85,35.27-19.28,11.58-39.97,15.11-62.27,12.43-35.75-4.19-60.07-29.34-71.18-61.85-1.1,2.01-1.4,3.91-1.42,5.82-.04,4.99.45,10.02,0,14.97-1.07,11.54-1.34,22.92,3.44,33.84-.05,1-.1,2-.15,3,4.77,21.93,20.41,34.75,38.31,45.68,7.73,6.28,17.2,8.39,26.47,10.91,19.24,5.24,38.1,3.7,56.59-3.46,24.49-7.52,45.25-22.81,66.96-35.88,19.26-11.76,38.51-23.52,57.77-35.27,9.3-5.75,18.6-11.5,27.9-17.25-.33-.29-.63-.57-.89-.85.26.27.55.56.89.85,10.01-6.26,20.02-12.52,30.03-18.78h0c32.4-19.12,64.17-41.31,102.33-46.53,15.58-2.74,31.13-.61,46.63,1.69,2.21.64,4.46,1.15,6.61,1.95,10.64,3.98,21.95,6.6,30.5,14.86,3.02,2.26,6.33,4.21,8.98,6.84,4.56,4.5,8.72,9.42,13.05,14.16v.02c1-1.33,1.99-2.66,2.98-3.98-1.13-3.94-2.26-7.89-3.39-11.83ZM232.22,451.02c2.01.51,4.03.96,6.06,1.34-2.03-.38-4.05-.82-6.06-1.34ZM269.12,450.87c-1.46.45-2.89.84-4.32,1.17,1.43-.33,2.87-.72,4.32-1.17.26-.07.52-.14.78-.19-.26.05-.52.12-.78.19Z"/>
        <path class="cls-4" d="M676.49,333.58c.32,3.35.64,6.7.96,10.06-1.31-2.02-2.62-4.05-3.93-6.07.99-1.33,1.98-2.65,2.96-3.98Z"/>
        <path class="cls-4" d="M674.58,453.5c-.81-2.6-1.62-5.2-2.44-7.79-9.94-25.84-29.65-41.09-55.1-48.72-29.52-9.19-57.76-3.65-84.57,10.78-2.67,1.28-5.46,2.36-7.99,3.88-64.53,39.18-129.29,77.99-193.91,117.03-30.35,18.5-62.73,26.88-98.22,20.89-16.64-2.81-32.2-8.16-45.14-19.55-3.58-3.15-7.26-6.2-10.89-9.29-.36.23-.72.45-1.08.68,1.11,3.06,2.22,6.12,3.33,9.17,1.67,8.87,4.99,16.89,11.82,23.12,11.07,12.82,22.89,24.77,38.17,32.68,10.23,3.28,20.27,7.44,30.73,9.57,8.81,1.79,18.1,1.22,27.17,1.7,5.34-.7,10.68-1.39,16.01-2.09,4.34-1.35,8.68-2.69,13.03-4.04,0,0-.04.02-.04.02,18.71-9.6,37.09-19.92,56-29.1,0,0-.08.07-.08.07,15.54-9.62,30.83-19.65,47.13-27.97,2.61-1.67,5.22-3.34,7.83-5,22.82-13.49,45.52-27.2,68.1-41.08,0,0-.08.06-.08.06,17.35-10.1,34.7-20.2,52.05-30.3,9.08-3.35,18.11-6.89,27.2-10.17,25.39-6.48,48.05.84,68.81,14.86,14.34,9.69,21.73,24.68,26.83,40.83.49-.06.96-.16,1.39-.28-.43.12-.9.22-1.39.28.76,5.57,1.52,11.15,2.27,16.72,1.03-.87,2.61-1.54,2.99-2.63,1.51-4.36,2.64-8.85,3.91-13.29.01-.31.06-.62.14-.93.03-12.67.06-25.33.08-38-1.35-4.03-2.71-8.07-4.06-12.1ZM398.58,538.62s0,0,0,0c-3.23.26-6.34.17-9.42-.46,3.08.63,6.19.72,9.42.46ZM280.51,553.55c7.37-1.71,14.5-3.98,21.46-6.66-6.96,2.68-14.09,4.95-21.46,6.66,3.97-.43,7.94-.85,11.91-1.29-3.97.44-7.94.86-11.91,1.29-7.35-.14-14.73,0-22.09-.05,7.36.04,14.74-.09,22.09.05ZM258.38,553.51c-1.83-.01-3.66-.03-5.49-.08,1.83.04,3.66.06,5.49.08ZM250.13,553.35c-1.83-.06-3.67-.15-5.5-.26,1.83.11,3.66.2,5.5.26ZM488.52,437.72s0,0,0,0c5.01-3.48,9.9-7.15,15.05-10.4-5.16,3.25-10.04,6.92-15.05,10.4ZM579.43,440.57s0,0,0,0c.65-.09,1.31-.19,1.96-.3-.65.11-1.31.21-1.96.3ZM660.42,429.65c-3.93-1.7-7.95-3.23-11.76-5.16,3.82,1.93,7.83,3.46,11.76,5.16,3.6,6.16,7.18,12.33,10.8,18.48-3.62-6.15-7.2-12.32-10.8-18.48Z"/>
        <path class="cls-2" d="M454.74,536.55l-.42.06c-.69-4.12-3.23-1.36-4.27-.74-8.92,5.29-17.75,10.76-26.5,16.33-7.12,4.53-8.84,10.07-6.04,18.4-.41,5.99-.81,11.99-1.22,17.98.03,7.88.05,15.76.08,23.64-.23,8.44-.47,16.87-.7,25.31,0,20.33,0,40.67,0,61,2.9,12.32,11.22,19.17,22.04,16.66,4.6-1.07,8.5-5.14,12.71-7.85,1.34-3.86,3.8-7.71,3.83-11.58.27-35.4.11-70.8.08-106.19.1-.68.2-1.36.3-2.04.03-16.99.07-33.97.1-50.96Z"/>
        <path class="cls-2" d="M278.52,657.55c-4.29-9.32-15.99-14.48-26.76-8.88-2.13,3.26-4.26,6.52-6.39,9.78-5.19,14.81,9.11,27.95,23.4,21.82,8.46-3.38,12.14-9.42,11.88-18.69-.71-1.34-1.42-2.69-2.13-4.03Z"/>
      </g>
    </g>
  </g>
</svg>